<svg viewBox="0 0 1024 1024" class="icon" version="1.1" xmlns="http://www.w3.org/2000/svg" fill="#000000"><g id="SVGRepo_bgCarrier" stroke-width="0"></g><g id="SVGRepo_tracerCarrier" stroke-linecap="round" stroke-linejoin="round"></g><g id="SVGRepo_iconCarrier"><path d="M960 160v704c0 35.3-28.7 64-64 64H128c-35.3 0-64-28.7-64-64V160c0-35.3 28.7-64 64-64h768c35.3 0 64 28.7 64 64z" fill="#d1d5db"></path><path d="M704 512c0-188.6-116.5-349.9-281.4-416H128c-35.3 0-64 28.7-64 64v704c0 35.3 28.7 64 64 64h294.6C587.5 861.9 704 700.6 704 512z" fill="#e5e7eb"></path><path d="M101.7 922.3c8 3.6 16.9 5.7 26.3 5.7h768c9.4 0 18.3-2 26.3-5.7L512 512 101.7 922.3z" fill="#f3f4f6"></path><path d="M702 447.8c0-106-86-192-192-192s-192 86-192 192c0 56.9 24.7 107.9 64 143.1l128 128 128-128c39.3-35.2 64-86.3 64-143.1z m-192 64c-35.3 0-64-28.7-64-64s28.7-64 64-64 64 28.7 64 64-28.7 64-64 64z" fill="#046c4e"></path></g></svg>